<?xml version="1.0" encoding="utf-8"?>
<!-- Generator: Adobe Illustrator 16.0.4, SVG Export Plug-In . SVG Version: 6.00 Build 0)  -->
<!DOCTYPE svg PUBLIC "-//W3C//DTD SVG 1.0//EN" "http://www.w3.org/TR/2001/REC-SVG-20010904/DTD/svg10.dtd">
<svg version="1.0" id="Layer_1" xmlns="http://www.w3.org/2000/svg" xmlns:xlink="http://www.w3.org/1999/xlink" x="0px" y="0px"
	 width="48px" height="48px" viewBox="0 0 48 48" enable-background="new 0 0 48 48" xml:space="preserve">
<path fill="white" d="M45.923,21.729H7.095l9.265-10.125c0.812-0.887,0.812-2.325,0-3.211c-0.812-0.887-2.127-0.887-2.938,0L0.609,22.394
	c-0.812,0.887-0.812,2.325,0,3.211l12.812,14.002c0.405,0.443,0.938,0.665,1.469,0.665c0.531,0,1.063-0.222,1.469-0.665
	c0.812-0.886,0.812-2.325,0-3.211L7.095,26.271h38.829C47.07,26.271,48,25.253,48,24C48,22.746,47.07,21.729,45.923,21.729z"/>
</svg>
