<?xml version="1.0" encoding="utf-8"?>
<!-- Generator: Adobe Illustrator 16.0.4, SVG Export Plug-In . SVG Version: 6.00 Build 0)  -->
<!DOCTYPE svg PUBLIC "-//W3C//DTD SVG 1.0//EN" "http://www.w3.org/TR/2001/REC-SVG-20010904/DTD/svg10.dtd">
<svg version="1.0" id="Layer_1" xmlns="http://www.w3.org/2000/svg" xmlns:xlink="http://www.w3.org/1999/xlink" x="0px" y="0px"
	 width="48px" height="48px" viewBox="340 0 48 48" enable-background="new 340 0 48 48" xml:space="preserve">
<g>
	<path fill="white" d="M360.127,37.766c-2.328,0-4.222,1.894-4.222,4.221c0,2.328,1.894,4.222,4.222,4.222c2.328,0,4.221-1.894,4.221-4.222
		C364.348,39.659,362.455,37.766,360.127,37.766z M360.127,43.852c-1.028,0-1.865-0.837-1.865-1.865s0.836-1.864,1.865-1.864
		c1.028,0,1.864,0.836,1.864,1.864S361.155,43.852,360.127,43.852z"/>
	<path fill="white" d="M374.935,37.766c-2.328,0-4.222,1.894-4.222,4.221c0,2.328,1.894,4.222,4.222,4.222c2.327,0,4.222-1.894,4.222-4.222
		C379.155,39.659,377.262,37.766,374.935,37.766z M374.935,43.852c-1.028,0-1.864-0.837-1.864-1.865s0.836-1.864,1.864-1.864
		s1.864,0.836,1.864,1.864S375.962,43.852,374.935,43.852z"/>
	<path fill="white" d="M359.084,17.897h16.889c0.651,0,1.179-0.528,1.179-1.179s-0.527-1.179-1.179-1.179h-16.889
		c-0.651,0-1.178,0.528-1.178,1.179S358.434,17.897,359.084,17.897z"/>
	<path fill="white" d="M375.055,21.66h-15.051c-0.651,0-1.179,0.528-1.179,1.179s0.528,1.178,1.179,1.178h15.051c0.65,0,1.178-0.527,1.178-1.178
		S375.705,21.66,375.055,21.66z"/>
	<path fill="white" d="M387.47,10.289c-0.449-0.551-1.115-0.868-1.827-0.868h-36.71l-0.742-3.599c-0.155-0.751-0.667-1.381-1.37-1.687
		l-5.173-2.245c-0.597-0.259-1.291,0.015-1.55,0.612c-0.259,0.597,0.015,1.291,0.611,1.55l5.173,2.245l5.703,27.681
		c0.225,1.09,1.195,1.881,2.309,1.881h28.234c0.65,0,1.179-0.527,1.179-1.179c0-0.65-0.528-1.179-1.179-1.179h-28.234l-0.694-3.366
		h29.146c1.113,0,2.085-0.792,2.309-1.882l3.297-16.001C388.095,11.557,387.919,10.84,387.47,10.289z M382.346,27.778h-29.631
		l-3.296-16h36.225L382.346,27.778z"/>
</g>
</svg>
