<?xml version="1.0" encoding="utf-8"?>
<!-- Generator: Adobe Illustrator 16.0.4, SVG Export Plug-In . SVG Version: 6.00 Build 0)  -->
<!DOCTYPE svg PUBLIC "-//W3C//DTD SVG 1.0//EN" "http://www.w3.org/TR/2001/REC-SVG-20010904/DTD/svg10.dtd">
<svg version="1.0" id="icons" xmlns="http://www.w3.org/2000/svg" xmlns:xlink="http://www.w3.org/1999/xlink" x="0px" y="0px"
	 width="48px" height="48px" viewBox="0 0 48 48" enable-background="new 0 0 48 48" xml:space="preserve">
<g>
	<path fill="white" d="M43.672,7.869H4.328C2.022,7.869,0,9.892,0,12.197v23.641c0,2.287,2.022,4.293,4.328,4.293h39.344
		c2.306,0,4.328-2.006,4.328-4.293V12.197C48,9.892,45.978,7.869,43.672,7.869z M45.639,35.838c0,0.975-0.974,1.933-1.967,1.933
		H4.328c-0.993,0-1.967-0.958-1.967-1.933V12.197c0-0.993,0.974-1.967,1.967-1.967h39.344c0.993,0,1.967,0.975,1.967,1.967V35.838z"
		/>
	<path fill="white" d="M39.87,15.936L24,26.516L8.13,15.936c-0.543-0.363-1.275-0.215-1.637,0.327
		c-0.361,0.542-0.215,1.275,0.328,1.637l16.524,11.017c0.198,0.132,0.427,0.198,0.655,0.198c0.229,0,0.457-0.066,0.655-0.198
		L41.18,17.9c0.542-0.361,0.688-1.094,0.327-1.637C41.145,15.721,40.412,15.573,39.87,15.936z"/>
	<path fill="white" d="M13.903,26.166l-7.082,4.721c-0.542,0.362-0.689,1.094-0.328,1.637c0.228,0.341,0.602,0.526,0.983,0.526
		c0.225,0,0.452-0.064,0.653-0.198l7.082-4.722c0.543-0.361,0.689-1.094,0.328-1.637C15.178,25.95,14.445,25.804,13.903,26.166z"/>
	<path fill="white" d="M41.18,30.887l-7.082-4.721c-0.545-0.362-1.276-0.215-1.637,0.327c-0.361,0.542-0.215,1.275,0.327,1.637
		l7.082,4.722c0.201,0.134,0.429,0.198,0.653,0.198c0.381,0,0.756-0.185,0.983-0.526C41.868,31.981,41.722,31.249,41.18,30.887z"/>
</g>
</svg>
