<?xml version="1.0" encoding="utf-8"?>
<!-- Generator: Adobe Illustrator 16.0.4, SVG Export Plug-In . SVG Version: 6.00 Build 0)  -->
<!DOCTYPE svg PUBLIC "-//W3C//DTD SVG 1.0//EN" "http://www.w3.org/TR/2001/REC-SVG-20010904/DTD/svg10.dtd">
<svg version="1.0" id="Layer_1" xmlns="http://www.w3.org/2000/svg" xmlns:xlink="http://www.w3.org/1999/xlink" x="0px" y="0px"
	 width="48px" height="48px" viewBox="0 0 48 48" enable-background="new 0 0 48 48" xml:space="preserve">
<path fill="white" d="M43.348,27.306c-0.752-8.881-7.245-16.596-9.398-18.256L31.407,7.09l1.278,2.954c0.669,1.55,0.972,4.101,0.242,5.935
	c-3.78-12.659-11.738-15.44-12.09-15.558L19.567,0l0.188,1.332c0.72,5.092-1.534,11.291-6.704,18.445
	c-0.202-1.94-0.599-3.596-1.676-5.667l-1.379-2.653l-0.184,2.987C9.648,17.13,8.5,19.559,7.286,22.13
	c-1.015,2.147-2.213,4.344-2.542,6.815C2.633,44.764,16.157,48,24.296,48C32.863,48,44.857,42.2,43.348,27.306z M37.892,40.57
	c-3.814,4.213-9.524,5.715-13.596,5.715c-3.107,0-10.798-0.529-15.091-5.425c-2.487-2.836-3.416-6.77-2.759-11.689
	c0.248-1.859,1.08-3.583,1.96-5.407L8.84,22.86c0.785-1.663,1.588-3.362,2.114-5.159c0.198,0.758,0.31,1.49,0.39,2.253l0.465,4.474
	l2.635-3.647c4.935-6.828,7.333-12.915,7.149-18.125c2.289,1.279,7.024,4.895,9.688,13.814l1.415,4.736l1.828-4.594
	c0.493-1.238,0.616-2.659,0.508-3.994c2.526,3.056,6.083,8.664,6.608,14.86C42.181,32.82,40.919,37.225,37.892,40.57z"/>
</svg>
