<?xml version="1.0" encoding="utf-8"?>
<!-- Generator: Adobe Illustrator 16.0.4, SVG Export Plug-In . SVG Version: 6.00 Build 0)  -->
<!DOCTYPE svg PUBLIC "-//W3C//DTD SVG 1.0//EN" "http://www.w3.org/TR/2001/REC-SVG-20010904/DTD/svg10.dtd">
<svg version="1.0" id="Layer_1" xmlns="http://www.w3.org/2000/svg" xmlns:xlink="http://www.w3.org/1999/xlink" x="0px" y="0px"
	 width="48px" height="48px" viewBox="0 0 48 48" enable-background="new 0 0 48 48" xml:space="preserve">
<g>
	<path fill="white" d="M36.491,22.006l-9.472-0.009c-0.541-0.052-0.971-0.475-0.999-1.016v-0.014c0-0.015-0.005-0.033-0.005-0.053
		c0-0.019,0.005-0.038,0.005-0.057v-0.009v-5.169v-1.121c0-1.102-0.908-1.994-2.028-1.994c-1.101,0-1.99,0.855-2.029,1.928v0.133
		v10.166v0.086c0,0.009,0,0.019,0,0.028c0.036,0.55,0.474,0.997,1.028,1.039h13.581c1.014-0.108,1.801-0.934,1.801-1.955
		C38.374,22.937,37.543,22.077,36.491,22.006z"/>
	<path fill="white" d="M23.997,0.4C10.745,0.4,0,10.967,0,24c0,13.034,10.745,23.6,23.997,23.6C37.253,47.6,48,37.034,48,24
		C48,10.967,37.253,0.4,23.997,0.4z M23.997,41.481c-9.813,0-17.773-7.826-17.773-17.48c0-9.654,7.96-17.476,17.773-17.476
		c9.819,0,17.779,7.822,17.779,17.476C41.776,33.655,33.815,41.481,23.997,41.481z"/>
</g>
</svg>
