<?xml version="1.0" encoding="utf-8"?>
<!-- Generator: Adobe Illustrator 16.0.4, SVG Export Plug-In . SVG Version: 6.00 Build 0)  -->
<!DOCTYPE svg PUBLIC "-//W3C//DTD SVG 1.0//EN" "http://www.w3.org/TR/2001/REC-SVG-20010904/DTD/svg10.dtd">
<svg version="1.0" id="icons" xmlns="http://www.w3.org/2000/svg" xmlns:xlink="http://www.w3.org/1999/xlink" x="0px" y="0px"
	 width="100px" height="100px" viewBox="0 0 100 100" enable-background="new 0 0 100 100" xml:space="preserve">
<g>
	<path fill="white" d="M50,33.332c-5.515,0-10.001,4.486-10.001,10.002v8.332c0,0.922,0.746,1.668,1.667,1.668h16.668
		c0.921,0,1.667-0.746,1.667-1.668v-8.332C60.001,37.818,55.515,33.332,50,33.332z M56.667,50H43.333v-6.666
		c0-3.678,2.99-6.668,6.667-6.668s6.667,2.99,6.667,6.668V50z"/>
	<path fill="white" d="M50,26.666c-9.19,0-16.668,7.477-16.668,16.668v41.668c0,0.922,0.746,1.666,1.667,1.666s1.667-0.744,1.667-1.666V43.334
		c0-7.354,5.981-13.336,13.334-13.336s13.334,5.982,13.334,13.336v41.668c0,0.922,0.746,1.666,1.667,1.666s1.667-0.744,1.667-1.666
		V43.334C66.668,34.143,59.189,26.666,50,26.666z"/>
	<path fill="white" d="M13.331,36.666H5.688l5.488-5.488c0.651-0.652,0.651-1.707,0-2.357c-0.65-0.65-1.705-0.65-2.356,0l-8.332,8.33
		c-0.155,0.156-0.277,0.342-0.361,0.547c-0.168,0.406-0.168,0.865,0,1.271c0.084,0.205,0.206,0.389,0.361,0.545l8.332,8.332
		c0.325,0.324,0.752,0.488,1.179,0.488c0.426,0,0.853-0.164,1.178-0.488c0.651-0.652,0.651-1.707,0-2.357L5.688,40h7.644
		c0.922,0,1.667-0.746,1.667-1.668C14.998,37.412,14.253,36.666,13.331,36.666z"/>
	<path fill="white" d="M99.874,38.969c0.168-0.406,0.168-0.865,0-1.271c-0.084-0.205-0.206-0.391-0.361-0.547l-8.332-8.33
		c-0.651-0.65-1.706-0.65-2.356,0c-0.651,0.65-0.651,1.705,0,2.357l5.488,5.488h-7.644c-0.922,0-1.667,0.746-1.667,1.666
		c0,0.922,0.745,1.668,1.667,1.668h7.644l-5.488,5.488c-0.651,0.65-0.651,1.705,0,2.357c0.325,0.324,0.752,0.488,1.178,0.488
		c0.427,0,0.854-0.164,1.179-0.488l8.332-8.332C99.668,39.357,99.79,39.174,99.874,38.969z"/>
	<path fill="white" d="M50,13.332c-16.542,0-30.002,13.459-30.002,30.002c0,6.074,1.807,11.928,5.227,16.924c0.322,0.473,0.845,0.727,1.377,0.727
		c0.324,0,0.651-0.096,0.939-0.291c0.76-0.52,0.954-1.557,0.435-2.316c-3.037-4.441-4.644-9.643-4.644-15.043
		c0-14.705,11.963-26.67,26.668-26.67s26.668,11.965,26.668,26.67c0,5.344-1.574,10.498-4.553,14.906
		c-0.516,0.762-0.315,1.799,0.448,2.314c0.762,0.52,1.8,0.314,2.312-0.447c3.354-4.963,5.126-10.764,5.126-16.773
		C80.002,26.791,66.542,13.332,50,13.332z"/>
</g>
</svg>
