<?xml version="1.0" encoding="utf-8"?>
<!-- Generator: Adobe Illustrator 16.0.4, SVG Export Plug-In . SVG Version: 6.00 Build 0)  -->
<!DOCTYPE svg PUBLIC "-//W3C//DTD SVG 1.0//EN" "http://www.w3.org/TR/2001/REC-SVG-20010904/DTD/svg10.dtd">
<svg version="1.0" id="icons" xmlns="http://www.w3.org/2000/svg" xmlns:xlink="http://www.w3.org/1999/xlink" x="0px" y="0px"
	 width="48px" height="48px" viewBox="0 0 48 48" enable-background="new 0 0 48 48" xml:space="preserve">
<g>
	<path d="M22.82,31.859v5.177c0,0.651,0.528,1.18,1.18,1.18c0.652,0,1.18-0.529,1.18-1.18v-5.177
		c0.476-0.36,0.787-0.924,0.787-1.564c0-1.084-0.882-1.967-1.967-1.967c-1.084,0-1.967,0.882-1.967,1.967
		C22.033,30.935,22.345,31.499,22.82,31.859z"/>
	<path d="M36.197,18.885v-5.902C36.197,5.946,30.611,0,24,0S11.803,5.946,11.803,12.983v5.902H7.082V48h33.836V18.885H36.197z
		 M14.164,12.983c0-5.13,3.952-10.623,9.836-10.623s9.836,5.493,9.836,10.623v5.902H14.164V12.983z M38.558,45.64H9.442V21.246
		h29.115V45.64z"/>
</g>
</svg>
