<?xml version="1.0" encoding="utf-8"?>
<!-- Generator: Adobe Illustrator 16.0.4, SVG Export Plug-In . SVG Version: 6.00 Build 0)  -->
<!DOCTYPE svg PUBLIC "-//W3C//DTD SVG 1.0//EN" "http://www.w3.org/TR/2001/REC-SVG-20010904/DTD/svg10.dtd">
<svg version="1.0" id="Capa_1" xmlns="http://www.w3.org/2000/svg" xmlns:xlink="http://www.w3.org/1999/xlink" x="0px" y="0px"
	 width="48px" height="48px" viewBox="340 0 48 48" enable-background="new 340 0 48 48" xml:space="preserve">
<g>
	<g>
		<path d="M381.495,25.215h-18.705V6.51c0-0.756-0.604-1.36-1.36-1.36c-11.811,0-21.425,9.614-21.425,21.425
			c0,11.811,9.614,21.425,21.425,21.425s21.425-9.614,21.425-21.425C382.855,25.829,382.24,25.215,381.495,25.215z M361.43,45.279
			c-10.31,0-18.704-8.395-18.704-18.704c0-9.856,7.659-17.959,17.344-18.654v18.654c0,0.756,0.604,1.36,1.36,1.36h18.654
			C379.389,37.62,371.286,45.279,361.43,45.279z"/>
		<path d="M387.995,21.354c-0.021-5.2-1.925-10.208-5.361-14.109C378.562,2.64,372.717,0,366.569,0c-0.756,0-1.36,0.604-1.36,1.36
			v20.065c0,0.756,0.604,1.36,1.36,1.36h20.064l0,0c0.756,0,1.361-0.604,1.361-1.36C387.995,21.405,387.995,21.385,387.995,21.354z
			 M367.93,20.075V2.782c4.857,0.353,9.413,2.6,12.657,6.278c2.722,3.074,4.334,6.943,4.637,11.015H367.93z"/>
	</g>
</g>
</svg>
