<?xml version="1.0" encoding="utf-8"?>
<!-- Generator: Adobe Illustrator 16.0.4, SVG Export Plug-In . SVG Version: 6.00 Build 0)  -->
<!DOCTYPE svg PUBLIC "-//W3C//DTD SVG 1.0//EN" "http://www.w3.org/TR/2001/REC-SVG-20010904/DTD/svg10.dtd">
<svg version="1.0" id="Layer_1" xmlns="http://www.w3.org/2000/svg" xmlns:xlink="http://www.w3.org/1999/xlink" x="0px" y="0px"
	 width="48px" height="48px" viewBox="0 0 48 48" enable-background="new 0 0 48 48" xml:space="preserve">
<path d="M40.649,6.74C36.157,2.415,30.243,0.034,24,0.034c-6.821,0-13.354,2.947-17.799,7.965L5.918,8.289
	C2.103,12.664,0,18.242,0,24c0,13.215,10.767,23.966,24,23.966S48,37.215,48,24C48,17.429,45.39,11.3,40.649,6.74z M2.006,26.011
	c0.628,1.458,1.481,2.953,2.656,4.371c1.394,1.682,2.827,2.986,4.095,4.142c2.843,2.593,4.797,4.375,5.061,9.043
	C7.314,40.179,2.701,33.652,2.006,26.011z M15.762,44.463c-0.061-6.197-2.562-8.479-5.718-11.356
	c-1.217-1.109-2.597-2.367-3.906-3.945c-2.566-3.097-3.432-6.674-3.851-9.16c0.724-3.848,2.493-7.496,5.22-10.615
	C11.714,4.658,17.726,1.946,24,1.946c1.731,0,3.435,0.2,5.084,0.586c0.265,1.843,0.311,4.325-0.772,6.309
	c-0.965,1.764-2.984,3.471-5.136,5.292c-3.924,3.317-8.372,7.074-6.499,11.66c1.096,2.691,4.77,4.413,8.033,5.943
	c3.29,1.54,6.397,2.995,6.672,5.428c0.214,1.841,0.078,4.178-4.229,8.666C23.322,46.379,19.245,45.865,15.762,44.463z M30.335,45.13
	c2.78-3.429,3.227-5.811,2.95-8.184c-0.394-3.493-4.139-5.246-7.783-6.952c-2.923-1.371-6.237-2.923-7.052-4.922
	c-1.146-2.807,1.01-5.293,5.978-9.493c2.278-1.926,4.428-3.745,5.565-5.821c1.101-2.015,1.267-4.354,1.117-6.316
	c1.137,0.443,2.233,0.978,3.274,1.6c1.64,0.977,2.822,2.484,3.329,4.245c0.799,2.769,1.327,7.087-0.699,11.933l-0.132,0.317
	c-1.223,2.908-3.071,7.303-0.659,10.696c1.341,1.886,4.448,2.602,6.855,2.87C40.282,39.875,35.74,43.511,30.335,45.13z
	 M37.783,31.124c-1.795-2.524-0.195-6.329,0.866-8.85l0.133-0.318c2.24-5.358,1.656-10.136,0.772-13.201
	c-0.059-0.203-0.125-0.406-0.198-0.604c4.34,4.192,6.729,9.819,6.729,15.849c0,3.31-0.734,6.453-2.048,9.273
	C40.892,33.031,38.579,32.24,37.783,31.124z"/>
</svg>
